<svg width="1170" height="314" viewBox="0 0 1170 314" fill="none" xmlns="http://www.w3.org/2000/svg">
<path fill-rule="evenodd" clip-rule="evenodd" d="M779.994 109.029C785.677 105.838 792.355 104 799.5 104C804.31 104 808.909 104.833 813.134 106.351C817.668 95.4349 826.654 88 837 88C842.521 88 847.655 90.1175 851.932 93.7516C865.78 75.0922 887.978 63 913 63C928.771 63 943.421 67.804 955.565 76.0286C963.066 54.7139 979.025 40 997.5 40C1009.63 40 1020.68 46.3463 1028.96 56.7408C1032.93 54.958 1037.14 54 1041.5 54C1053.82 54 1064.95 61.6585 1072.87 73.9644C1082.53 67.006 1093.87 63 1106 63C1135.52 63 1160.37 86.7293 1167.76 119H1169V125.544C1169.66 129.912 1170 134.408 1170 139C1170 143.592 1169.66 148.088 1169 152.456V314H707H462H0V108V78H6.15047C17.7859 50.9448 44.6806 32 76 32C91.7715 32 106.421 36.804 118.565 45.0286C126.066 23.7139 142.025 9 160.5 9C172.634 9 183.682 15.3463 191.962 25.7408C195.932 23.958 200.141 23 204.5 23C216.824 23 227.952 30.6585 235.867 42.9644C245.532 36.006 256.872 32 269 32C279.399 32 289.219 34.9454 297.901 40.1719C303.567 27.7357 316.925 19 332.5 19C340.831 19 348.527 21.4992 354.751 25.727C356.454 25.2495 358.208 25 360 25C364.022 25 367.852 26.2562 371.334 28.5269C380.224 11.5352 397.564 0 417.5 0C438.179 0 456.066 12.4116 464.625 30.4504C467.976 27.0184 472.074 25 476.5 25C481.385 25 485.871 27.459 489.393 31.5639C497.851 24.9418 508.47 21 520 21C541.945 21 560.588 35.2789 567.318 55.1395C568.203 55.0471 569.097 55 570 55C578.853 55 586.916 59.5281 592.966 66.9481C597.179 59.669 603.691 55 611 55C615.851 55 620.352 57.0571 624.062 60.5692C635.232 42.5613 652.553 31 672 31C698.474 31 721.008 52.426 729.447 82.3736C730.605 82.1276 731.792 82 733 82C743.197 82 751.843 91.0873 754.858 103.671C756.278 101.954 757.848 101 759.5 101C763.086 101 766.288 105.495 768.397 112.54C771.57 110.278 775.176 109 779 109C779.333 109 779.664 109.01 779.994 109.029Z" fill="#E1DFE1"/>
</svg>
