<svg width="428" height="193" viewBox="0 0 428 193" fill="none" xmlns="http://www.w3.org/2000/svg">
<path fill-rule="evenodd" clip-rule="evenodd" d="M428 109.266V193H0V25.9536C1.93592 25.3286 3.94295 25 6 25C10.0217 25 13.8522 26.2562 17.334 28.5269C26.2235 11.5352 43.5641 0 63.5 0C84.1794 0 102.066 12.4116 110.625 30.4504C113.976 27.0184 118.074 25 122.5 25C127.385 25 131.871 27.459 135.393 31.5639C143.851 24.9418 154.47 21 166 21C187.945 21 206.588 35.2789 213.318 55.1395C214.203 55.0471 215.097 55 216 55C224.853 55 232.916 59.5281 238.966 66.9481C243.179 59.669 249.691 55 257 55C261.851 55 266.352 57.0571 270.062 60.5692C281.232 42.5613 298.553 31 318 31C344.473 31 367.008 52.426 375.447 82.3736C376.605 82.1276 377.792 82 379 82C389.197 82 397.843 91.0873 400.858 103.671C402.278 101.954 403.848 101 405.5 101C409.086 101 412.288 105.495 414.397 112.54C417.57 110.278 421.176 109 425 109C426.017 109 427.018 109.09 428 109.266Z" fill="#E1DFE1"/>
</svg>
