<svg width="131" height="80" viewBox="0 0 131 80" fill="none" xmlns="http://www.w3.org/2000/svg">
<path fill-rule="evenodd" clip-rule="evenodd" d="M26 43.5C32 -23 105 -2.50001 105 38.5C87 66.5 36.1667 58.3333 26 43.5ZM71.5 5.99999C92 17 95.8333 40.6667 89 46C111.5 32 83 9.49999 71.5 5.99999ZM26.5 28C-37 54 29 82.5 70 79.5C148 70.5 140 30.5 103.5 22.5L105.5 28C127.5 42 94 66 63.5 63.5C7.10001 59.1 14 42 24.5 34L26.5 28ZM15 50C15 51.0062 14.4723 51.9846 13.4865 52.7429C12.4996 53.5021 11.0935 54 9.5 54C7.90654 54 6.50043 53.5021 5.51352 52.7429C4.52769 51.9846 4 51.0062 4 50C4 48.9938 4.52769 48.0154 5.51352 47.2571C6.50043 46.4979 7.90654 46 9.5 46C11.0935 46 12.4996 46.4979 13.4865 47.2571C14.4723 48.0154 15 48.9938 15 50ZM16 50C16 52.7614 13.0899 55 9.5 55C5.91015 55 3 52.7614 3 50C3 47.2386 5.91015 45 9.5 45C13.0899 45 16 47.2386 16 50ZM12 50C12 51.1046 10.8807 52 9.5 52C8.11929 52 7 51.1046 7 50C7 48.8954 8.11929 48 9.5 48C10.8807 48 12 48.8954 12 50ZM71 71C71 72.0062 70.4723 72.9846 69.4865 73.7429C68.4996 74.5021 67.0935 75 65.5 75C63.9065 75 62.5004 74.5021 61.5135 73.7429C60.5277 72.9846 60 72.0062 60 71C60 69.9938 60.5277 69.0154 61.5135 68.2571C62.5004 67.4979 63.9065 67 65.5 67C67.0935 67 68.4996 67.4979 69.4865 68.2571C70.4723 69.0154 71 69.9938 71 71ZM72 71C72 73.7614 69.0899 76 65.5 76C61.9102 76 59 73.7614 59 71C59 68.2386 61.9102 66 65.5 66C69.0899 66 72 68.2386 72 71ZM68 71C68 72.1046 66.8807 73 65.5 73C64.1193 73 63 72.1046 63 71C63 69.8954 64.1193 69 65.5 69C66.8807 69 68 69.8954 68 71ZM126 43C126 44.0062 125.472 44.9846 124.486 45.7429C123.5 46.5021 122.093 47 120.5 47C118.907 47 117.5 46.5021 116.514 45.7429C115.528 44.9846 115 44.0062 115 43C115 41.9938 115.528 41.0154 116.514 40.2571C117.5 39.4979 118.907 39 120.5 39C122.093 39 123.5 39.4979 124.486 40.2571C125.472 41.0154 126 41.9938 126 43ZM127 43C127 45.7614 124.09 48 120.5 48C116.91 48 114 45.7614 114 43C114 40.2386 116.91 38 120.5 38C124.09 38 127 40.2386 127 43ZM123 43C123 44.1046 121.881 45 120.5 45C119.119 45 118 44.1046 118 43C118 41.8954 119.119 41 120.5 41C121.881 41 123 41.8954 123 43Z" fill="#E1DFE1"/>
</svg>
